<svg width="103" height="103" viewBox="0 0 103 103" fill="none" xmlns="http://www.w3.org/2000/svg">
<g clip-path="url(#clip0_1796_8393)">
<path fill-rule="evenodd" clip-rule="evenodd" d="M0 51.5C0 37.8414 5.42588 24.7421 15.084 15.084C24.7421 5.42588 37.8414 0 51.5 0C65.1587 0 78.2579 5.42588 87.916 15.084C97.5741 24.7421 103 37.8414 103 51.5C103 65.1587 97.5741 78.2579 87.916 87.916C78.2579 97.5741 65.1587 103 51.5 103C37.8414 103 24.7421 97.5741 15.084 87.916C5.42588 78.2579 0 65.1587 0 51.5ZM46.1881 56.6279L37.1168 47.5566C36.9154 47.3518 36.6754 47.189 36.4108 47.0774C36.1461 46.9658 35.8621 46.9076 35.5748 46.9062C35.2876 46.9049 35.003 46.9603 34.7373 47.0694C34.4716 47.1785 34.2302 47.3391 34.0268 47.5419L29.5169 52.0591C29.1109 52.4718 28.8846 53.0283 28.8873 53.6072C28.8901 54.1861 29.1217 54.7404 29.5316 55.1491L43.5837 69.1939C44.2675 69.8795 45.1939 70.2679 46.1622 70.2748C47.1304 70.2817 48.0624 69.9065 48.7558 69.2307L50.7054 67.2811L73.5494 44.4371C73.9342 44.0281 74.143 43.4842 74.1306 42.9227C74.1182 42.3612 73.8857 41.8271 73.4831 41.4354L68.9659 36.9181C68.5752 36.5138 68.0407 36.2801 67.4786 36.2677C66.9165 36.2553 66.3723 36.4652 65.9641 36.8519L46.1881 56.6279Z" fill="#00D666"/>
</g>
<defs>
<clipPath id="clip0_1796_8393">
<rect width="103" height="103" fill="white"/>
</clipPath>
</defs>
</svg>
